<svg width="30" height="30" viewBox="0 0 30 30" fill="none" xmlns="http://www.w3.org/2000/svg">
<path d="M15 1.875C7.75195 1.875 1.875 7.75195 1.875 15C1.875 22.248 7.75195 28.125 15 28.125C22.248 28.125 28.125 22.248 28.125 15C28.125 7.75195 22.248 1.875 15 1.875ZM20.4053 12.2373L15.1904 19.4443C15.1689 19.4743 15.1405 19.4987 15.1076 19.5155C15.0748 19.5323 15.0384 19.5411 15.0015 19.5411C14.9646 19.5411 14.9282 19.5323 14.8953 19.5155C14.8625 19.4987 14.8341 19.4743 14.8125 19.4443L9.59766 12.2373C9.48633 12.082 9.59766 11.8652 9.78809 11.8652H11.1621C11.4609 11.8652 11.7451 12.0088 11.9209 12.252L15 16.5117L18.082 12.252C18.2578 12.0088 18.5391 11.8652 18.8408 11.8652H20.2148C20.4053 11.8652 20.5166 12.082 20.4053 12.2373Z" fill="#1D62B4"/>
</svg>
