<svg xmlns="http://www.w3.org/2000/svg" viewBox="0 0 380.65 135.44"><defs><style>.\33 4783aec-006e-403c-9c87-b91d6bef78b0,.\35 c58897e-3b42-4934-a0df-38e246d7920f{fill:#f5f6fb;}.\33 4783aec-006e-403c-9c87-b91d6bef78b0{fill-rule:evenodd;}</style></defs><title>Логотип Beacon-connect</title><g id="c149725d-abe4-4430-8bc0-34448519b371"><g id="df308e0a-c677-43c0-949d-727823918e7a" data-name="Слой 1"><path class="34783aec-006e-403c-9c87-b91d6bef78b0" d="M59.33,34.92A22.82,22.82,0,1,1,36.51,57.74h0V35.38a31.95,31.95,0,0,0,9.13,51.23v9.86a41.08,41.08,0,0,1-9.13-72.89V13a50.22,50.22,0,0,0,9.13,93v9.42A59.34,59.34,0,0,1,36.51,3h0l.76-.31.07,0,1.11-.43h0A59.28,59.28,0,0,1,45.64,0V57.74h0a13.68,13.68,0,1,0,5.94-11.29l6-11.47q.84-.06,1.71-.06m0,18.25a4.57,4.57,0,1,1-4.57,4.57A4.57,4.57,0,0,1,59.33,53.17ZM75.68.69a59.35,59.35,0,0,1,0,114.09l-4.37-8.29A50.21,50.21,0,0,0,71.31,9ZM66.9,17.36a41.08,41.08,0,0,1,0,80.75l-4.52-8.57a31.95,31.95,0,0,0,0-63.6Z"/><path class="5c58897e-3b42-4934-a0df-38e246d7920f" d="M153.9,45.85h-7.68V34.05h7.68c3.31,0,5.49,2.31,5.49,5.87s-2.18,5.93-5.49,5.93m-1-29c3.31,0,5.49,2.31,5.49,5.68a5.19,5.19,0,0,1-5.49,5.56h-6.68V16.88Zm7,14.24v-.38c3.44-.81,5.93-4.37,5.93-9.49,0-6.43-4.37-10.8-10.92-10.8H138.85V52.28H155.9c6.55,0,10.92-4.43,10.92-11C166.82,35.92,164.08,32.05,159.89,31.12Z"/><path class="5c58897e-3b42-4934-a0df-38e246d7920f" d="M281.27,46.23c-3.74,0-6.11-2.38-6.11-6V22.5c0-3.62,2.37-6,6.11-6a5.68,5.68,0,0,1,6.06,6V40.23a5.69,5.69,0,0,1-6.06,6m0,6.8c8.12,0,13.43-5,13.43-12.61V22.31c0-7.62-5.31-12.61-13.43-12.61s-13.55,5-13.55,12.61V40.42C267.72,48,273.09,53,281.27,53Z"/><path class="5c58897e-3b42-4934-a0df-38e246d7920f" d="M326.92,52.28v-30c0-7.61-5.31-12.61-13.43-12.61s-13.55,5-13.55,12.61v30h7.43V22.5c0-3.62,2.38-6,6.12-6a5.69,5.69,0,0,1,6.06,6V52.28Z"/><path class="5c58897e-3b42-4934-a0df-38e246d7920f" d="M249.06,53c8.11,0,13.42-5,13.42-12.61V37.3h-7.37v2.93a5.69,5.69,0,0,1-6.05,6c-3.75,0-6.12-2.38-6.12-6V22.5c0-3.62,2.37-6,6.12-6a5.68,5.68,0,0,1,6.05,6v2.93h7.37V22.31c0-7.61-5.31-12.61-13.42-12.61s-13.55,5-13.55,12.61V40.42C235.51,48,240.88,53,249.06,53"/><path class="5c58897e-3b42-4934-a0df-38e246d7920f" d="M210.72,33.56V22.5c0-3.62,2.37-6,6.12-6a5.68,5.68,0,0,1,6,6V33.56Zm19.54,18.72v-30c0-7.61-5.31-12.61-13.42-12.61s-13.55,5-13.55,12.61v30h7.43V40.18h12.17v12.1Z"/><path class="5c58897e-3b42-4934-a0df-38e246d7920f" d="M178.64,26.7V22c0-3.56,2.35-5.78,6-5.78s5.92,2.22,5.92,5.78V26.7Zm6,26.74c8.08,0,13.42-5,13.42-12.53v-.73h-7.5v.54c0,3.56-2.42,5.79-5.92,5.79s-6-2.23-6-5.79V33.44H198V21.82c0-7.57-5.34-12.53-13.42-12.53s-13.55,5-13.55,12.53V40.91C171.07,48.48,176.48,53.44,184.62,53.44Z"/><rect class="5c58897e-3b42-4934-a0df-38e246d7920f" x="330.6" y="27.68" width="7.37" height="7.37"/><path class="5c58897e-3b42-4934-a0df-38e246d7920f" d="M325.1,124.54a3,3,0,0,0-2.68,1.52h-.11l.21-1.27h-1.58l-1.66,10.4h1.58l1.2-7.57a2.19,2.19,0,0,1,2.12-1.6,1.39,1.39,0,0,1,1.5,1.74l-1.18,7.43h1.58l1.27-8a2.14,2.14,0,0,0-2.25-2.68M312,134a1.44,1.44,0,0,1-1.58-1.79l.68-4.4a2.09,2.09,0,0,1,2.16-1.79,1.43,1.43,0,0,1,1.56,1.79l-.68,4.4A2.07,2.07,0,0,1,312,134Zm-.21,1.46a3.79,3.79,0,0,0,3.93-3.23l.68-4.45c.34-1.93-.85-3.22-2.91-3.22a3.81,3.81,0,0,0-4,3.22l-.69,4.45C308.49,134.15,309.67,135.44,311.75,135.44Zm-9.11-.25h1.58l1.66-10.4H304.3Zm2.78-12.46a1.18,1.18,0,0,0,1.17-1,.8.8,0,0,0-.85-1,1.13,1.13,0,0,0-1.17,1A.8.8,0,0,0,305.42,122.73Zm-7.3,3.48h2l.23-1.42h-2l.42-2.7h-1.48l-.35,2.16a.58.58,0,0,1-.61.54h-1l-.23,1.42h1.47L295.46,133a1.77,1.77,0,0,0,1.94,2.19h1.22l.23-1.46H298a.86.86,0,0,1-.94-1.1Zm-11.29,8a1.42,1.42,0,0,1-1.56-1.77,2.24,2.24,0,0,1,2.39-1.83h1.69l-.34,2A2.15,2.15,0,0,1,286.83,134.17Zm1.68-9.63a3.59,3.59,0,0,0-3.74,3l-.08.41h1.56l.06-.33a1.93,1.93,0,0,1,2-1.6c1.08,0,1.66.64,1.51,1.6l-.27,1.7h-2.14a3.62,3.62,0,0,0-3.73,3.14,2.38,2.38,0,0,0,2.53,3,2.75,2.75,0,0,0,2.53-1.38h.13l-.19,1.13h1.52l1.2-7.67C291.67,125.75,290.53,124.54,288.51,124.54Zm-12.19,10.9a3.76,3.76,0,0,0,3.91-3.18l.1-.63h-1.56l-.1.6a2.06,2.06,0,0,1-2.13,1.75,1.4,1.4,0,0,1-1.52-1.75l.7-4.49A2,2,0,0,1,277.8,126a1.42,1.42,0,0,1,1.56,1.74l-.11.61h1.58l.11-.63c.29-1.91-.88-3.18-2.92-3.18a3.74,3.74,0,0,0-3.88,3.18l-.72,4.54C273.13,134.17,274.29,135.44,276.32,135.44ZM266,134a1.45,1.45,0,0,1-1.58-1.79l.69-4.4a2.08,2.08,0,0,1,2.16-1.79,1.43,1.43,0,0,1,1.56,1.79l-.69,4.4A2.07,2.07,0,0,1,266,134Zm-.21,1.46a3.79,3.79,0,0,0,3.93-3.23l.69-4.45c.33-1.93-.85-3.22-2.91-3.22a3.82,3.82,0,0,0-4,3.22l-.68,4.45C262.53,134.15,263.71,135.44,265.78,135.44Zm-7.54-.25h.82l.23-1.46h-.43a.81.81,0,0,1-.9-1l1.91-12.1H258.3l-2,12.48A1.72,1.72,0,0,0,258.24,135.19Zm-6.52-10.4-1.23,7.67a2.09,2.09,0,0,1-2,1.5,1.33,1.33,0,0,1-1.39-1.7l1.19-7.47h-1.58l-1.29,8a2.09,2.09,0,0,0,2.18,2.64,2.87,2.87,0,0,0,2.56-1.48h.1l-.19,1.23h1.58l1.67-10.4Zm-11.79-.25a3.15,3.15,0,0,0-2.81,1.67H237a2,2,0,0,0-2.16-1.67A2.9,2.9,0,0,0,232.3,126h-.08l.18-1.23h-1.58l-1.66,10.4h1.58l1.23-7.61a2,2,0,0,1,2-1.56,1.34,1.34,0,0,1,1.4,1.7l-1.19,7.47h1.58l1.23-7.7a2,2,0,0,1,2-1.47,1.33,1.33,0,0,1,1.4,1.7l-1.19,7.47h1.58l1.27-8A2.08,2.08,0,0,0,239.93,124.54Zm-16,0a3.15,3.15,0,0,0-2.81,1.67h-.08a2,2,0,0,0-2.16-1.67,2.9,2.9,0,0,0-2.58,1.48h-.09l.19-1.23h-1.58l-1.66,10.4h1.58l1.23-7.61a2,2,0,0,1,2-1.56,1.33,1.33,0,0,1,1.39,1.7l-1.18,7.47h1.58l1.23-7.7a2,2,0,0,1,2-1.47,1.33,1.33,0,0,1,1.4,1.7l-1.19,7.47h1.58l1.27-8A2.08,2.08,0,0,0,224,124.54ZM205.87,134a1.44,1.44,0,0,1-1.58-1.79l.68-4.4a2.09,2.09,0,0,1,2.16-1.79,1.43,1.43,0,0,1,1.56,1.79l-.68,4.4A2.07,2.07,0,0,1,205.87,134Zm-.21,1.46a3.79,3.79,0,0,0,3.93-3.23l.68-4.45c.34-1.93-.85-3.22-2.91-3.22a3.81,3.81,0,0,0-4,3.22l-.69,4.45C202.4,134.15,203.58,135.44,205.66,135.44Zm-24-9.23h2l.23-1.42h-2l.41-2.7h-1.47l-.35,2.16a.59.59,0,0,1-.61.54h-1l-.23,1.42h1.48L179,133a1.77,1.77,0,0,0,1.93,2.19h1.23l.23-1.46h-.81a.86.86,0,0,1-.94-1.1Zm-6.26-1.67a2.86,2.86,0,0,0-2.66,1.77h-.11l.25-1.52h-1.58l-1.66,10.4h1.58l1.1-6.84a2.8,2.8,0,0,1,2.75-2h.35l.27-1.77ZM162,134.17a1.42,1.42,0,0,1-1.55-1.77,2.23,2.23,0,0,1,2.39-1.83h1.68l-.33,2A2.16,2.16,0,0,1,162,134.17Zm1.69-9.63a3.58,3.58,0,0,0-3.74,3l-.08.41h1.55l.07-.33a1.91,1.91,0,0,1,2-1.6c1.08,0,1.66.64,1.52,1.6l-.27,1.7h-2.14a3.62,3.62,0,0,0-3.74,3.14,2.38,2.38,0,0,0,2.53,3,2.76,2.76,0,0,0,2.54-1.38H164l-.19,1.13h1.52l1.2-7.67C166.87,125.75,165.73,124.54,163.71,124.54Zm-9.17,1.67h2l.23-1.42h-2l.42-2.7H153.7l-.35,2.16a.58.58,0,0,1-.6.54h-1l-.23,1.42H153L151.87,133a1.78,1.78,0,0,0,1.94,2.19H155l.22-1.46h-.81a.86.86,0,0,1-.93-1.1Zm39.6,9.23a4.61,4.61,0,0,0,4.8-3.91l.17-1.12h-1.67l-.16,1.06a2.82,2.82,0,0,1-2.91,2.43,2,2,0,0,1-2.15-2.43l1-6.49a2.82,2.82,0,0,1,2.92-2.43A2,2,0,0,1,198.3,125l-.14,1.06h1.66l.16-1.12c.38-2.37-1-3.91-3.57-3.91a4.61,4.61,0,0,0-4.83,3.91l-1,6.61C190.16,133.9,191.6,135.44,194.14,135.44Zm-51.44,0a4.41,4.41,0,0,0,4.61-3.93c.79-5-5.73-3.39-5.17-6.88a2.35,2.35,0,0,1,2.49-2.08c1.33,0,2.1.79,1.91,2l-.1.54h1.64l.1-.6c.32-2.06-1-3.47-3.32-3.47a4.2,4.2,0,0,0-4.41,3.74c-.77,4.86,5.74,3.33,5.18,6.88a2.61,2.61,0,0,1-2.7,2.27c-1.48,0-2.27-.9-2.06-2.23l.08-.62h-1.64l-.11.64C138.85,134,140.25,135.44,142.7,135.44Z"/><path class="5c58897e-3b42-4934-a0df-38e246d7920f" d="M184.62,99c-3.75,0-6.12-2.38-6.12-6V75.24c0-3.62,2.37-6,6.12-6a5.68,5.68,0,0,1,6,6V93a5.69,5.69,0,0,1-6,6m0,6.8c8.11,0,13.42-5,13.42-12.61V75.05c0-7.62-5.31-12.61-13.42-12.61s-13.55,5-13.55,12.61V93.16C171.07,100.78,176.44,105.77,184.62,105.77Z"/><polygon class="5c58897e-3b42-4934-a0df-38e246d7920f" points="359.14 63.19 332.16 63.19 332.16 69.99 342 69.99 342 105.02 349.37 105.02 349.37 69.99 359.14 69.99 359.14 63.19"/><path class="5c58897e-3b42-4934-a0df-38e246d7920f" d="M152.4,105.77c8.12,0,13.42-5,13.42-12.61V90h-7.36V93a5.7,5.7,0,0,1-6.06,6c-3.75,0-6.12-2.38-6.12-6V75.24c0-3.62,2.37-6,6.12-6a5.69,5.69,0,0,1,6.06,6v2.93h7.36V75.05c0-7.62-5.3-12.61-13.42-12.61s-13.55,5-13.55,12.61V93.16c0,7.62,5.37,12.61,13.55,12.61"/><path class="5c58897e-3b42-4934-a0df-38e246d7920f" d="M230.26,105v-30c0-7.62-5.31-12.61-13.42-12.61s-13.55,5-13.55,12.61v30h7.43V75.24c0-3.62,2.37-6,6.12-6a5.68,5.68,0,0,1,6,6V105Z"/><path class="5c58897e-3b42-4934-a0df-38e246d7920f" d="M262.48,105v-30c0-7.62-5.31-12.61-13.42-12.61s-13.55,5-13.55,12.61v30h7.43V75.24c0-3.62,2.37-6,6.12-6a5.68,5.68,0,0,1,6.05,6V105Z"/><path class="5c58897e-3b42-4934-a0df-38e246d7920f" d="M313.49,105.77c8.12,0,13.43-5,13.43-12.61V90h-7.37V93a5.7,5.7,0,0,1-6.06,6c-3.74,0-6.12-2.38-6.12-6V75.24c0-3.62,2.38-6,6.12-6a5.69,5.69,0,0,1,6.06,6v2.93h7.37V75.05c0-7.62-5.31-12.61-13.43-12.61s-13.55,5-13.55,12.61V93.16c0,7.62,5.37,12.61,13.55,12.61"/><path class="5c58897e-3b42-4934-a0df-38e246d7920f" d="M275.3,79.43V74.75c0-3.56,2.35-5.79,6-5.79s5.91,2.23,5.91,5.79v4.68Zm6,26.75c8.07,0,13.42-5,13.42-12.53v-.73h-7.51v.54c0,3.56-2.42,5.79-5.91,5.79s-6-2.23-6-5.79V86.18h19.4V74.56C294.7,67,289.35,62,281.28,62s-13.56,5-13.56,12.53V93.65C267.72,101.22,273.13,106.18,281.28,106.18Z"/><path class="5c58897e-3b42-4934-a0df-38e246d7920f" d="M378.09,87.77a2.14,2.14,0,0,1-2.26,2.3h-6.69a2.3,2.3,0,0,1,0-4.59h6.69a2.15,2.15,0,0,1,2.26,2.29m2.56,0c0-3.06-1.88-5.06-4.75-5.06h-6.83c-2.87,0-4.76,2-4.76,5.06s1.89,5.11,4.76,5.11h6.83C378.77,92.88,380.65,90.85,380.65,87.77Z"/><path class="5c58897e-3b42-4934-a0df-38e246d7920f" d="M380.65,99.91c0-3.06-1.88-5.06-4.75-5.06h-1.18v2.78h1.11a2.3,2.3,0,0,1,0,4.59h-6.69a2.3,2.3,0,0,1,0-4.59h1.11V94.85h-1.18c-2.87,0-4.76,2-4.76,5.06s1.89,5.11,4.76,5.11h6.83c2.87,0,4.75-2,4.75-5.11"/><path class="5c58897e-3b42-4934-a0df-38e246d7920f" d="M380.37,63.19h-11.3c-2.87,0-4.76,2-4.76,5.06A5.34,5.34,0,0,0,365.6,72a5.26,5.26,0,0,0-1.29,3.67c0,3.08,1.89,5.11,4.76,5.11h11.3v-2.8H369.14a2.3,2.3,0,0,1-.32-4.58h11.55v-2.8H369.14a2.3,2.3,0,0,1,0-4.59h11.23Z"/></g></g></svg>
