<svg width="50" height="50" viewBox="0 0 50 50" fill="none" xmlns="http://www.w3.org/2000/svg">
<path d="M39.5835 16.6667L31.2502 25H37.5002C37.5002 28.3152 36.1832 31.4946 33.839 33.8388C31.4948 36.183 28.3154 37.5 25.0002 37.5C22.9168 37.5 20.896 36.9792 19.1668 36.0417L16.1252 39.0833C18.7774 40.7714 21.8563 41.6675 25.0002 41.6667C29.4204 41.6667 33.6597 39.9107 36.7853 36.7851C39.9109 33.6595 41.6668 29.4203 41.6668 25H47.9168L39.5835 16.6667ZM12.5002 25C12.5002 21.6848 13.8171 18.5054 16.1613 16.1612C18.5055 13.817 21.685 12.5 25.0002 12.5C27.0835 12.5 29.1043 13.0208 30.8335 13.9583L33.8752 10.9167C31.2229 9.22866 28.144 8.33247 25.0002 8.33334C20.5799 8.33334 16.3407 10.0893 13.215 13.2149C10.0894 16.3405 8.3335 20.5797 8.3335 25H2.0835L10.4168 33.3333L18.7502 25" fill="#1D62B4"/>
</svg>
