<svg width="50" height="50" viewBox="0 0 50 50" fill="none" xmlns="http://www.w3.org/2000/svg">
<path d="M20.8335 35.4167H29.1668V43.75H20.8335V35.4167Z" fill="#3ECC3B"/>
<path d="M41.9167 18.1458L31.8542 8.08333C30.6832 6.9109 29.0945 6.25146 27.4375 6.25H20.8333V18.75H31.25C31.8025 18.75 32.3324 18.9695 32.7231 19.3602C33.1138 19.7509 33.3333 20.2808 33.3333 20.8333C33.3333 21.3859 33.1138 21.9158 32.7231 22.3065C32.3324 22.6972 31.8025 22.9167 31.25 22.9167H18.75C18.1975 22.9167 17.6676 22.6972 17.2769 22.3065C16.8862 21.9158 16.6667 21.3859 16.6667 20.8333V6.25H12.5C10.8424 6.25 9.25269 6.90848 8.08058 8.08058C6.90848 9.25269 6.25 10.8424 6.25 12.5V37.5C6.25 39.1576 6.90848 40.7473 8.08058 41.9194C9.25269 43.0915 10.8424 43.75 12.5 43.75H16.6667V35.4167C16.6667 34.3116 17.1057 33.2518 17.8871 32.4704C18.6685 31.689 19.7283 31.25 20.8333 31.25H29.1667C30.2717 31.25 31.3315 31.689 32.1129 32.4704C32.8943 33.2518 33.3333 34.3116 33.3333 35.4167V43.75H37.5C39.1576 43.75 40.7473 43.0915 41.9194 41.9194C43.0915 40.7473 43.75 39.1576 43.75 37.5V22.5625C43.7485 20.9055 43.0891 19.3168 41.9167 18.1458V18.1458Z" fill="#3ECC3B"/>
</svg>
