<svg width="16" height="16" viewBox="0 0 16 16" fill="none" xmlns="http://www.w3.org/2000/svg">
<path fill-rule="evenodd" clip-rule="evenodd" d="M8.00014 15C8.13275 15 8.25993 14.9473 8.3537 14.8536C8.44746 14.7598 8.50014 14.6326 8.50014 14.5V2.707L11.6461 5.854C11.74 5.94789 11.8674 6.00063 12.0001 6.00063C12.1329 6.00063 12.2603 5.94789 12.3541 5.854C12.448 5.76011 12.5008 5.63278 12.5008 5.5C12.5008 5.36722 12.448 5.23989 12.3541 5.146L8.35414 1.146C8.3077 1.09944 8.25252 1.06249 8.19178 1.03729C8.13103 1.01208 8.06591 0.999106 8.00014 0.999106C7.93438 0.999106 7.86926 1.01208 7.80851 1.03729C7.74776 1.06249 7.69259 1.09944 7.64614 1.146L3.64614 5.146C3.55226 5.23989 3.49951 5.36722 3.49951 5.5C3.49951 5.63278 3.55226 5.76011 3.64614 5.854C3.74003 5.94789 3.86737 6.00063 4.00014 6.00063C4.13292 6.00063 4.26026 5.94789 4.35414 5.854L7.50014 2.707V14.5C7.50014 14.6326 7.55282 14.7598 7.64659 14.8536C7.74036 14.9473 7.86753 15 8.00014 15Z" fill="#3876BF"/>
</svg>
